<mxfile host="app.diagrams.net" modified="2023-12-01T08:36:41.531Z" agent="Mozilla/5.0 (Windows NT 10.0; Win64; x64) AppleWebKit/537.36 (KHTML, like Gecko) Chrome/119.0.0.0 Safari/537.36" version="21.6.6" etag="T7L6rHTE1ea1qhVpXSjx" type="github">
  <diagram name="Page-1" id="nee_IOh4fVBfPIu_5qH8">
    <mxGraphModel>
      <root>
        <mxCell id="0" />
        <mxCell id="1" parent="0" />
      </root>
    </mxGraphModel>
  </diagram>
</mxfile>
